<?xml version="1.0" encoding="UTF-8"?>
<svg xmlns="http://www.w3.org/2000/svg" xmlns:xlink="http://www.w3.org/1999/xlink" width="64px" height="64px" viewBox="0 0 64 64" version="1.1">
<g id="surface1">
<path style=" stroke:none;fill-rule:evenodd;fill:rgb(0%,0%,0%);fill-opacity:1;" d="M 44.8125 5.21875 L 64.0625 16.164062 L 64.0625 16.398438 L 44.613281 27.226562 L 44.660156 21.582031 L 42.46875 21.5 C 39.644531 21.425781 38.171875 21.507812 36.421875 21.792969 C 33.585938 22.261719 30.988281 23.332031 28.03125 25.398438 L 22.253906 29.414062 C 21.496094 29.933594 20.933594 30.308594 20.441406 30.625 L 19.066406 31.484375 L 18.007812 32.109375 L 19.035156 32.722656 L 20.449219 33.625 C 21.71875 34.460938 23.566406 35.746094 27.652344 38.601562 C 30.609375 40.667969 33.207031 41.738281 36.042969 42.207031 L 36.84375 42.324219 C 38.695312 42.566406 40.507812 42.574219 44.375 42.414062 L 44.433594 36.65625 L 63.6875 47.601562 L 63.6875 47.835938 L 44.238281 58.667969 L 44.273438 53.703125 L 42.582031 53.761719 C 38.886719 53.871094 36.882812 53.765625 34.214844 53.328125 C 29.695312 52.582031 25.519531 50.859375 21.199219 47.835938 L 15.441406 43.835938 C 14.78125 43.382812 14.109375 42.9375 13.429688 42.507812 L 12.183594 41.761719 C 11.511719 41.375 10.835938 40.992188 10.15625 40.617188 C 7.753906 39.28125 1.5 37.644531 0 37.644531 L 0 26.367188 L 0.375 26.378906 C 1.878906 26.359375 8.132812 24.71875 10.53125 23.382812 L 13.238281 21.835938 L 14.40625 21.105469 C 15.550781 20.355469 17.265625 19.167969 21.570312 16.164062 C 25.894531 13.140625 30.066406 11.414062 34.585938 10.671875 C 37.660156 10.164062 39.851562 10.105469 44.757812 10.304688 Z M 44.8125 5.21875 "/>
</g>
</svg>
