<svg xmlns="http://www.w3.org/2000/svg" width="64" height="64" viewBox="0 0 64 64" fill="none">
  <rect width="64" height="64" rx="12" fill="#1a1a2e"/>
  <path d="M32 14C22.059 14 14 22.059 14 32s8.059 18 18 18 18-8.059 18-18S41.941 14 32 14zm0 4c7.732 0 14 6.268 14 14s-6.268 14-14 14-14-6.268-14-14 6.268-14 14-14z" fill="#6366f1"/>
  <path d="M32 24c-4.418 0-8 3.582-8 8s3.582 8 8 8 8-3.582 8-8-3.582-8-8-8zm0 4c2.21 0 4 1.79 4 4s-1.79 4-4 4-4-1.79-4-4 1.79-4 4-4z" fill="#818cf8"/>
  <circle cx="32" cy="32" r="2" fill="#c7d2fe"/>
</svg>
